STARTFONT 2.1
FONT 24x36x
SIZE 36 96 96
FONTBOUNDINGBOX 24 36 0 -8
COMMENT "Generated by fontforge, http://fontforge.sourceforge.net"
COMMENT "Exported by Fony v1.4.7"
STARTPROPERTIES 6
COPYRIGHT "Microsoft & Leon Marrick, 2005.  Freeware. Share and enjoy!"
RESOLUTION_X 96
RESOLUTION_Y 96
FONT_ASCENT 28
FONT_DESCENT 8
DEFAULT_CHAR 31
ENDPROPERTIES
CHARS 256
STARTCHAR $000
ENCODING 0
SWIDTH 1728 0
DWIDTH 24 0
BBX 0 0 0 0
BITMAP
ENDCHAR
STARTCHAR $001
ENCODING 1
SWIDTH 1728 0
DWIDTH 24 0
BBX 24 36 0 -8
BITMAP
FFFFFF
FFFFFF
FFFFFF
FFFFFF
FFFFFF
FFFFFF
FFFFFF
FFFFFF
FFFFFF
FFFFFF
FFFFFF
FFFFFF
FFFFFF
FFFFFF
FFFFFF
FFFFFF
FFFFFF
FFFFFF
FFFFFF
FFFFFF
FFFFFF
FFFFFF
FFFFFF
FFFFFF
FFFFFF
FFFFFF
FFFFFF
FFFFFF
FFFFFF
FFFFFF
FFFFFF
FFFFFF
FFFFFF
FFFFFF
FFFFFF
FFFFFF
ENDCHAR
STARTCHAR $002
ENCODING 2
SWIDTH 1728 0
DWIDTH 24 0
BBX 24 36 0 -8
BITMAP
FFFFF7
FFFFF7
E79FBE
FFFDFF
FFFDFF
DCFFFE
FFEE4F
FFEE4F
DF7FF9
FFF3BF
FFF3BF
FB6FF9
3FFDCF
3FFDCF
FCFFFF
FFF3F6
FFF3F6
E79E7F
FFF3F7
FFF3F7
3B7E7F
FFFFFF
FFFFFF
E76FBE
FFFFF7
FFFFF7
E79FBE
FFFDFF
FFFDFF
DCFFFE
FFEE4F
FFEE4F
DF7FF9
FBF3BF
FBF3BF
3F9FFF
ENDCHAR
STARTCHAR $003
ENCODING 3
SWIDTH 1728 0
DWIDTH 24 0
BBX 24 36 0 -8
BITMAP
FF9FF9
FF9FF9
249249
DBFDBF
DBFDBF
249249
DF7DF7
DF7DF7
249249
FB7FB7
FB7FB7
C4EC4E
FF9FF9
FF9FF9
249249
DBFDBF
DBFDBF
249249
DF7DF7
DF7DF7
249249
FB7FB7
FB7FB7
C4EC4E
FF9FF9
FF9FF9
249249
DBFDBF
DBFDBF
249249
DF7DF7
DF7DF7
249249
FB7FB7
FB7FB7
C4EC4E
ENDCHAR
STARTCHAR $004
ENCODING 4
SWIDTH 1728 0
DWIDTH 24 0
BBX 24 36 0 -8
BITMAP
000008
000008
186041
000200
000200
230001
0011B0
0011B0
208006
000C40
000C40
049006
C00230
C00230
030000
000C09
000C09
186180
000008
000008
C48D80
000000
000000
189041
000008
000008
186041
000200
000200
230001
0011B0
0011B0
208006
040C40
040C40
C06000
ENDCHAR
STARTCHAR $005
ENCODING 5
SWIDTH 1728 0
DWIDTH 24 0
BBX 24 36 0 -8
BITMAP
200001
200001
006000
040180
040180
000008
201000
201000
030030
C00200
C00200
006006
180000
180000
000C30
000000
000000
230180
001008
001008
000001
030000
030000
000C30
200001
200001
006000
040180
040180
000008
201000
201000
030030
C00200
C00200
008008
ENDCHAR
STARTCHAR $006
ENCODING 6
SWIDTH 1728 0
DWIDTH 24 0
BBX 23 36 0 -8
BITMAP
008008
008008
000000
000000
000000
040000
000030
000030
001000
000000
000000
200000
000006
000006
000C00
000000
000000
040040
000000
000000
000000
200000
200000
008000
000006
000006
000200
000000
000000
000000
030030
030030
000000
000C00
000C00
C00000
ENDCHAR
STARTCHAR $007
ENCODING 7
SWIDTH 1728 0
DWIDTH 24 0
BBX 3 2 11 8
BITMAP
E0
E0
ENDCHAR
STARTCHAR $008
ENCODING 8
SWIDTH 1728 0
DWIDTH 24 0
BBX 5 4 9 7
BITMAP
F8
F8
F8
F8
ENDCHAR
STARTCHAR $009
ENCODING 9
SWIDTH 1728 0
DWIDTH 24 0
BBX 9 10 8 4
BITMAP
7E00
FF80
FF80
FF80
FF80
FF80
FF80
FF80
FF80
7E00
ENDCHAR
STARTCHAR $010
ENCODING 10
SWIDTH 1728 0
DWIDTH 24 0
BBX 15 16 5 1
BITMAP
0FC0
7FF8
7FF8
7FF8
FFFE
FFFE
FFFE
FFFE
FFFE
FFFE
FFFE
FFFE
7FF8
7FF8
7FF8
0FC0
ENDCHAR
STARTCHAR $011
ENCODING 11
SWIDTH 1728 0
DWIDTH 24 0
BBX 22 12 2 -4
BITMAP
03F1E0
1FBFF8
1FBFF8
724938
EDB6DC
EDB6DC
924924
EDB6DC
EDB6DC
924924
FFFFF8
FFFFF8
ENDCHAR
STARTCHAR $012
ENCODING 12
SWIDTH 1728 0
DWIDTH 24 0
BBX 24 15 0 1
BITMAP
1FFFF8
1FFFF8
24924E
FFFFFF
FFFFFF
24924E
1B6DB8
1B6DB8
049270
036DC0
036DC0
009380
006E00
006E00
001C00
ENDCHAR
STARTCHAR $013
ENCODING 13
SWIDTH 1728 0
DWIDTH 24 0
BBX 24 36 0 -8
BITMAP
03FFC0
03FFC0
1F6DB8
3C924E
3C924E
3B6DB6
E4924F
E4924F
DB6DB7
E49249
E49249
DB6DB7
E49249
E49249
DB6DB7
E49249
E49249
FFFFFF
FFFFFF
FFFFFF
E49249
DB6DB7
DB6DB7
E49249
DB6DB7
DB6DB7
E49249
DB6DB7
DB6DB7
E49249
DB6DB7
DB6DB7
E49249
DB6DB7
DB6DB7
FFFFFF
ENDCHAR
STARTCHAR $014
ENCODING 14
SWIDTH 1728 0
DWIDTH 24 0
BBX 24 36 0 -8
BITMAP
03FFC0
03FFC0
1C0038
200006
200006
200006
C00001
C00001
C00001
C00001
C00001
C00001
C00001
C00001
C00001
C00001
C00001
C00001
C00001
C00001
C00001
C00001
C00001
C00001
C00001
C00001
C00001
C00001
C00001
C00001
C00001
C00001
C00001
C00001
C00001
FFFFFF
ENDCHAR
STARTCHAR $015
ENCODING 15
SWIDTH 1728 0
DWIDTH 24 0
BBX 24 36 0 -8
BITMAP
036240
036240
180008
200006
200006
000000
C00001
C00001
C00001
000000
000000
C00001
C00001
C00001
000000
C00001
C00001
C00001
000000
000000
C00001
C00001
C00001
000000
C00001
C00001
C00001
000000
000000
C00001
C00001
C00001
000000
C00001
C00001
E76277
ENDCHAR
STARTCHAR $016
ENCODING 16
SWIDTH 1728 0
DWIDTH 24 0
BBX 18 31 3 -5
BITMAP
C00040
3B1380
3B1380
1FFE00
18F200
18F200
037C00
04FC00
04FC00
037000
00FC00
00FC00
077C00
00F000
00F000
037C00
04FC00
04FC00
037000
00FC00
00FC00
077C00
00F000
00F000
037C00
04FC00
04FC00
1B7200
1CFE00
1CFE00
07FC00
ENDCHAR
STARTCHAR $017
ENCODING 17
SWIDTH 1728 0
DWIDTH 24 0
BBX 19 29 2 -4
BITMAP
1C4000
1C4000
638000
000000
000000
000000
000000
000000
000E20
0031C0
0031C0
000000
000000
000000
000000
000000
000000
718000
8E0000
8E0000
000000
000000
000000
000000
000000
000000
0038C0
004700
004700
ENDCHAR
STARTCHAR $018
ENCODING 18
SWIDTH 1728 0
DWIDTH 24 0
BBX 19 27 2 -4
BITMAP
0FFE00
7DB7C0
7DB7C0
924920
EDB6E0
EDB6E0
924920
EDB6E0
EDB6E0
924920
EDB6E0
EDB6E0
924920
6FBEC0
6FBEC0
1DF700
01F000
01F000
01F000
01F000
01F000
01F000
01F000
01F000
01F000
01F000
01F000
ENDCHAR
STARTCHAR $019
ENCODING 19
SWIDTH 1728 0
DWIDTH 24 0
BBX 21 27 2 -5
BITMAP
003600
003600
003600
0DB000
0DB000
0D8100
6DC900
6DC900
604800
0248C0
0248C0
1206C0
13B6C0
13B6C0
11B620
838E20
838E20
9E7FC0
124920
124920
7DB6F8
EFC938
EFC938
6DB6D8
927938
927938
6FCEE0
ENDCHAR
STARTCHAR $020
ENCODING 20
SWIDTH 1728 0
DWIDTH 24 0
BBX 19 26 2 -4
BITMAP
0C4600
0C4600
024800
6000C0
6000C0
100100
800020
800020
6000C0
000000
000000
E000E0
000000
000000
E000E0
000000
000000
6000E0
800000
800000
100100
6000C0
6000C0
024800
0C4600
0C4600
ENDCHAR
STARTCHAR $021
ENCODING 21
SWIDTH 1728 0
DWIDTH 24 0
BBX 0 0 0 0
BITMAP
ENDCHAR
STARTCHAR $022
ENCODING 22
SWIDTH 1728 0
DWIDTH 24 0
BBX 0 0 0 0
BITMAP
ENDCHAR
STARTCHAR $023
ENCODING 23
SWIDTH 1728 0
DWIDTH 24 0
BBX 0 0 0 0
BITMAP
ENDCHAR
STARTCHAR $024
ENCODING 24
SWIDTH 1728 0
DWIDTH 24 0
BBX 0 0 0 0
BITMAP
ENDCHAR
STARTCHAR $025
ENCODING 25
SWIDTH 1728 0
DWIDTH 24 0
BBX 0 0 0 0
BITMAP
ENDCHAR
STARTCHAR $026
ENCODING 26
SWIDTH 1728 0
DWIDTH 24 0
BBX 0 0 0 0
BITMAP
ENDCHAR
STARTCHAR $027
ENCODING 27
SWIDTH 1728 0
DWIDTH 24 0
BBX 0 0 0 0
BITMAP
ENDCHAR
STARTCHAR $028
ENCODING 28
SWIDTH 1728 0
DWIDTH 24 0
BBX 0 0 0 0
BITMAP
ENDCHAR
STARTCHAR $029
ENCODING 29
SWIDTH 1728 0
DWIDTH 24 0
BBX 0 0 0 0
BITMAP
ENDCHAR
STARTCHAR $030
ENCODING 30
SWIDTH 1728 0
DWIDTH 24 0
BBX 0 0 0 0
BITMAP
ENDCHAR
STARTCHAR $031
ENCODING 31
SWIDTH 1728 0
DWIDTH 24 0
BBX 0 0 0 0
BITMAP
ENDCHAR
STARTCHAR $032
ENCODING 32
SWIDTH 1728 0
DWIDTH 24 0
BBX 0 0 0 0
BITMAP
ENDCHAR
STARTCHAR $033
ENCODING 33
SWIDTH 1728 0
DWIDTH 24 0
BBX 5 24 10 -2
BITMAP
70
70
F8
F8
F8
F8
F8
F8
F8
70
70
70
70
70
70
20
00
00
70
F8
F8
F8
F8
70
ENDCHAR
STARTCHAR $034
ENCODING 34
SWIDTH 1728 0
DWIDTH 24 0
BBX 9 8 8 14
BITMAP
E380
E380
E380
E380
E380
E380
E380
E380
ENDCHAR
STARTCHAR $035
ENCODING 35
SWIDTH 1728 0
DWIDTH 24 0
BBX 18 23 3 -1
BITMAP
0E0700
0E0700
0E0700
0E0700
0E0700
0E0700
FFFFC0
FFFFC0
FFFFC0
1C0E00
1C0E00
1C0E00
1C0E00
1C0E00
FFFFC0
FFFFC0
FFFFC0
381C00
381C00
381C00
381C00
381C00
381C00
ENDCHAR
STARTCHAR $036
ENCODING 36
SWIDTH 1728 0
DWIDTH 24 0
BBX 13 28 5 -4
BITMAP
0200
0200
1FC0
3FE0
7FF0
F278
E238
C218
C200
E200
F200
7F80
3FE0
0FF0
0278
0238
0218
0218
0218
C218
E238
F278
7FF0
3FE0
1FC0
0200
0200
0200
ENDCHAR
STARTCHAR $037
ENCODING 37
SWIDTH 1728 0
DWIDTH 24 0
BBX 21 23 2 -1
BITMAP
1C00C0
3E01C0
7F0180
E38380
E38300
C18700
C18E00
E38C00
E39C00
7F3800
3E3000
1C71C0
0063E0
00E7F0
01CE38
018E38
038C18
070C18
060E38
0E0E38
0C07F0
1C03E0
1801C0
ENDCHAR
STARTCHAR $038
ENCODING 38
SWIDTH 1728 0
DWIDTH 24 0
BBX 17 23 4 -1
BITMAP
07C000
0FE000
1FF000
3C7800
383800
301800
383800
1C7800
1EF000
0FE000
1FC000
3FC100
79E380
F0F380
E07F00
C03F00
C01E00
C01C00
E03E00
F07F00
7FF380
3FE180
1FC080
ENDCHAR
STARTCHAR $039
ENCODING 39
SWIDTH 1728 0
DWIDTH 24 0
BBX 6 8 9 14
BITMAP
38
7C
7C
7C
7C
38
78
E0
ENDCHAR
STARTCHAR $040
ENCODING 40
SWIDTH 1728 0
DWIDTH 24 0
BBX 8 29 9 -7
BITMAP
03
07
0E
1C
1C
38
38
70
70
F0
E0
E0
E0
E0
E0
E0
E0
E0
E0
F0
70
70
38
38
1C
1C
0E
07
03
ENDCHAR
STARTCHAR $041
ENCODING 41
SWIDTH 1728 0
DWIDTH 24 0
BBX 8 29 7 -7
BITMAP
C0
E0
70
38
38
1C
1C
0E
0E
0F
07
07
07
07
07
07
07
07
07
0F
0E
0E
1C
1C
38
38
70
E0
C0
ENDCHAR
STARTCHAR $042
ENCODING 42
SWIDTH 1728 0
DWIDTH 24 0
BBX 13 13 5 2
BITMAP
2020
7070
78F0
3DE0
1FC0
FFF8
FFF8
FFF8
0F80
1FC0
3DE0
78F0
7070
ENDCHAR
STARTCHAR $043
ENCODING 43
SWIDTH 1728 0
DWIDTH 24 0
BBX 17 19 4 -1
BITMAP
01C000
01C000
01C000
01C000
01C000
01C000
01C000
01C000
FFFF80
FFFF80
FFFF80
01C000
01C000
01C000
01C000
01C000
01C000
01C000
01C000
ENDCHAR
STARTCHAR $044
ENCODING 44
SWIDTH 1728 0
DWIDTH 24 0
BBX 6 8 9 -4
BITMAP
38
7C
7C
7C
7C
38
78
E0
ENDCHAR
STARTCHAR $045
ENCODING 45
SWIDTH 1728 0
DWIDTH 24 0
BBX 18 3 3 7
BITMAP
FFFFC0
FFFFC0
FFFFC0
ENDCHAR
STARTCHAR $046
ENCODING 46
SWIDTH 1728 0
DWIDTH 24 0
BBX 5 6 10 -2
BITMAP
70
F8
F8
F8
F8
70
ENDCHAR
STARTCHAR $047
ENCODING 47
SWIDTH 1728 0
DWIDTH 24 0
BBX 13 24 5 -1
BITMAP
0038
0038
0070
0070
00E0
00E0
01C0
01C0
01C0
0380
0380
0700
0700
0E00
0E00
1C00
1C00
1C00
3800
3800
7000
7000
E000
E000
ENDCHAR
STARTCHAR $048
ENCODING 48
SWIDTH 1728 0
DWIDTH 24 0
BBX 15 23 5 -1
BITMAP
0FE0
3FF8
3FF8
783C
701C
701C
E00E
E00E
E00E
E00E
E00E
E00E
E00E
E00E
E00E
E00E
E00E
701C
701C
783C
3FF8
3FF8
0FE0
ENDCHAR
STARTCHAR $049
ENCODING 49
SWIDTH 1728 0
DWIDTH 24 0
BBX 9 23 6 -1
BITMAP
0380
0780
0F80
1F80
3F80
7F80
F380
C380
0380
0380
0380
0380
0380
0380
0380
0380
0380
0380
0380
0380
0380
0380
0380
ENDCHAR
STARTCHAR $050
ENCODING 50
SWIDTH 1728 0
DWIDTH 24 0
BBX 15 23 5 -1
BITMAP
0FE0
3FF8
7FFC
783C
F01E
E00E
000E
000E
000E
001C
003C
0078
00F0
01E0
07C0
0F80
1F00
3C00
7800
7000
FFFE
FFFE
FFFE
ENDCHAR
STARTCHAR $051
ENCODING 51
SWIDTH 1728 0
DWIDTH 24 0
BBX 15 23 5 -1
BITMAP
1FC0
3FE0
7FF0
7070
6078
0038
0038
0070
0070
03E0
03F0
03F8
003C
001C
000E
000E
000E
C00E
E01C
F83C
7FF8
3FF0
0FC0
ENDCHAR
STARTCHAR $052
ENCODING 52
SWIDTH 1728 0
DWIDTH 24 0
BBX 15 23 5 -1
BITMAP
0070
00F0
00F0
01F0
03F0
0370
0770
0E70
1C70
3C70
3870
7070
E070
E070
FFFE
FFFE
FFFE
0070
0070
0070
0070
0070
0070
ENDCHAR
STARTCHAR $053
ENCODING 53
SWIDTH 1728 0
DWIDTH 24 0
BBX 15 23 5 -1
BITMAP
1FF8
1FF8
1FF8
3800
3800
3800
7000
7000
7FE0
FFF8
FFFC
E03C
001E
000E
000E
000E
000E
E00E
F01E
783C
7FFC
3FF8
0FE0
ENDCHAR
STARTCHAR $054
ENCODING 54
SWIDTH 1728 0
DWIDTH 24 0
BBX 15 23 5 -1
BITMAP
0FE0
1FF0
3FF8
783C
701C
700E
E000
E000
EFE0
FFF8
FFF8
F83C
F01C
E00E
E00E
E00E
E00E
700E
781C
7C3C
3FF8
1FF0
0FE0
ENDCHAR
STARTCHAR $055
ENCODING 55
SWIDTH 1728 0
DWIDTH 24 0
BBX 15 23 5 -1
BITMAP
FFFE
FFFE
FFFE
001C
0038
0038
0070
00E0
00E0
01C0
0380
0380
0700
0700
0E00
0E00
0E00
0E00
1C00
1C00
1C00
1C00
1C00
ENDCHAR
STARTCHAR $056
ENCODING 56
SWIDTH 1728 0
DWIDTH 24 0
BBX 14 23 5 -1
BITMAP
0780
1FE0
3FF0
3870
7038
7038
7038
7038
3870
3FF0
1FE0
3FF0
7878
7038
E01C
E01C
E01C
E01C
E01C
7038
7FF8
3FF0
0FC0
ENDCHAR
STARTCHAR $057
ENCODING 57
SWIDTH 1728 0
DWIDTH 24 0
BBX 15 23 5 -1
BITMAP
0FC0
3FF0
7FF8
783C
F01C
E00E
E00E
E00E
E00E
E00E
F01E
783E
7FFE
3FEE
0F8E
000E
000E
E00E
E01C
703C
7FF8
3FF0
1FC0
ENDCHAR
STARTCHAR $058
ENCODING 58
SWIDTH 1728 0
DWIDTH 24 0
BBX 5 15 10 -2
BITMAP
70
F8
F8
F8
F8
70
00
00
00
70
F8
F8
F8
F8
70
ENDCHAR
STARTCHAR $059
ENCODING 59
SWIDTH 1728 0
DWIDTH 24 0
BBX 6 17 9 -4
BITMAP
38
7C
7C
7C
7C
38
00
00
00
38
7C
7C
7C
7C
38
78
E0
ENDCHAR
STARTCHAR $060
ENCODING 60
SWIDTH 1728 0
DWIDTH 24 0
BBX 13 15 5 1
BITMAP
0038
00F8
03E0
0F80
3E00
7800
E000
E000
E000
7800
3E00
0F80
03E0
00F8
0038
ENDCHAR
STARTCHAR $061
ENCODING 61
SWIDTH 1728 0
DWIDTH 24 0
BBX 18 9 3 4
BITMAP
FFFFC0
FFFFC0
FFFFC0
000000
000000
000000
FFFFC0
FFFFC0
FFFFC0
ENDCHAR
STARTCHAR $062
ENCODING 62
SWIDTH 1728 0
DWIDTH 24 0
BBX 13 15 5 1
BITMAP
E000
F800
3E00
0F80
03E0
00F0
0038
0038
0038
00F0
03E0
0F80
3E00
F800
E000
ENDCHAR
STARTCHAR $063
ENCODING 63
SWIDTH 1728 0
DWIDTH 24 0
BBX 15 25 5 -2
BITMAP
07C0
1FF0
3FF8
7C7C
F83C
F01E
E00E
000E
001E
003C
0078
00F8
01F0
01E0
03C0
0380
0380
0100
0000
0380
07C0
07C0
07C0
07C0
0380
ENDCHAR
STARTCHAR $064
ENCODING 64
SWIDTH 1728 0
DWIDTH 24 0
BBX 23 24 0 -2
BITMAP
00FFC0
03FFF0
0F8078
1E001C
38000C
307E26
70FF76
61FFE6
E3C3C6
C381C6
C781C6
C701C6
C70186
C7018C
C7038C
C70798
E38FB8
63FDF0
71F9E0
38F0C4
1C000C
0F0038
07FFF0
01FFC0
ENDCHAR
STARTCHAR $065
ENCODING 65
SWIDTH 1728 0
DWIDTH 24 0
BBX 19 23 2 -1
BITMAP
00E000
00E000
01F000
01F000
03B800
03B800
031C00
071C00
071C00
0E0E00
0E0E00
0E0E00
1FFF00
1FFF00
3FFF80
380380
380380
7001C0
7001C0
7001C0
E000E0
E000E0
C00060
ENDCHAR
STARTCHAR $066
ENCODING 66
SWIDTH 1728 0
DWIDTH 24 0
BBX 17 23 3 -1
BITMAP
FFE000
FFF800
FFFC00
E03C00
E01E00
E00E00
E00E00
E00E00
E01E00
FFFC00
FFFC00
FFFE00
E00F00
E00700
E00700
E00380
E00380
E00380
E00780
E00F00
FFFF00
FFFE00
FFFC00
ENDCHAR
STARTCHAR $067
ENCODING 67
SWIDTH 1728 0
DWIDTH 24 0
BBX 19 23 2 -1
BITMAP
03FC00
0FFF00
1FFF80
3E0780
7C03C0
7801E0
F001E0
F000E0
E00000
E00000
E00000
E00000
E00000
E00000
E00000
F000E0
F001E0
7801E0
7C03C0
3E07C0
1FFF80
0FFF00
03FE00
ENDCHAR
STARTCHAR $068
ENCODING 68
SWIDTH 1728 0
DWIDTH 24 0
BBX 18 23 3 -1
BITMAP
FFF000
FFFC00
FFFE00
E01F00
E00780
E00380
E001C0
E001C0
E001C0
E001C0
E001C0
E001C0
E001C0
E001C0
E001C0
E001C0
E001C0
E00380
E00780
E00F00
FFFE00
FFFC00
FFF000
ENDCHAR
STARTCHAR $069
ENCODING 69
SWIDTH 1728 0
DWIDTH 24 0
BBX 16 23 5 -1
BITMAP
FFFF
FFFF
FFFF
E000
E000
E000
E000
E000
E000
FFFE
FFFE
FFFE
E000
E000
E000
E000
E000
E000
E000
E000
FFFF
FFFF
FFFF
ENDCHAR
STARTCHAR $070
ENCODING 70
SWIDTH 1728 0
DWIDTH 24 0
BBX 15 23 5 -1
BITMAP
FFFE
FFFE
FFFE
E000
E000
E000
E000
E000
E000
FFF8
FFF8
FFF8
E000
E000
E000
E000
E000
E000
E000
E000
E000
E000
E000
ENDCHAR
STARTCHAR $071
ENCODING 71
SWIDTH 1728 0
DWIDTH 24 0
BBX 19 23 2 -1
BITMAP
03FC00
0FFE00
1FFF00
3E07C0
3C03C0
7801E0
7000C0
7000C0
E00000
E00000
E00000
E03FE0
E03FE0
E03FE0
E000E0
7000E0
7000E0
7800E0
3C01E0
1E07E0
0FFFC0
07FF80
03FE00
ENDCHAR
STARTCHAR $072
ENCODING 72
SWIDTH 1728 0
DWIDTH 24 0
BBX 18 23 3 -1
BITMAP
E001C0
E001C0
E001C0
E001C0
E001C0
E001C0
E001C0
E001C0
E001C0
FFFFC0
FFFFC0
FFFFC0
E001C0
E001C0
E001C0
E001C0
E001C0
E001C0
E001C0
E001C0
E001C0
E001C0
E001C0
ENDCHAR
STARTCHAR $073
ENCODING 73
SWIDTH 1728 0
DWIDTH 24 0
BBX 9 23 8 -1
BITMAP
FF80
FF80
FF80
1C00
1C00
1C00
1C00
1C00
1C00
1C00
1C00
1C00
1C00
1C00
1C00
1C00
1C00
1C00
1C00
1C00
FF80
FF80
FF80
ENDCHAR
STARTCHAR $074
ENCODING 74
SWIDTH 1728 0
DWIDTH 24 0
BBX 15 23 5 -1
BITMAP
000E
000E
000E
000E
000E
000E
000E
000E
000E
000E
000E
000E
000E
000E
000E
000E
000E
E00E
F01E
F83E
7FFC
3FF8
1FF0
ENDCHAR
STARTCHAR $075
ENCODING 75
SWIDTH 1728 0
DWIDTH 24 0
BBX 18 23 3 -1
BITMAP
E00780
E00F00
E01E00
E03C00
E07800
E0F000
E1E000
E3C000
E78000
EF0000
FE0000
FF0000
FF8000
F3C000
E1E000
E0F000
E07800
E03C00
E01E00
E00F00
E00780
E003C0
E001C0
ENDCHAR
STARTCHAR $076
ENCODING 76
SWIDTH 1728 0
DWIDTH 24 0
BBX 15 23 5 -1
BITMAP
E000
E000
E000
E000
E000
E000
E000
E000
E000
E000
E000
E000
E000
E000
E000
E000
E000
E000
E000
E000
FFFE
FFFE
FFFE
ENDCHAR
STARTCHAR $077
ENCODING 77
SWIDTH 1728 0
DWIDTH 24 0
BBX 21 23 2 -1
BITMAP
F00078
F00078
F800F8
F800F8
F800F8
FC01F8
FC01F8
EC01B8
EE03B8
EE03B8
E60338
E70738
E70738
E30638
E38E38
E38E38
E18C38
E1DC38
E1FC38
E0F838
E0F838
E07038
E07038
ENDCHAR
STARTCHAR $078
ENCODING 78
SWIDTH 1728 0
DWIDTH 24 0
BBX 18 23 3 -1
BITMAP
F001C0
F001C0
F801C0
FC01C0
FC01C0
FE01C0
EF01C0
EF01C0
E781C0
E3C1C0
E1C1C0
E1E1C0
E0F1C0
E071C0
E079C0
E03DC0
E01DC0
E01FC0
E00FC0
E007C0
E007C0
E003C0
E001C0
ENDCHAR
STARTCHAR $079
ENCODING 79
SWIDTH 1728 0
DWIDTH 24 0
BBX 21 23 2 -1
BITMAP
03FE00
0FFF80
1FFFC0
3E03E0
7800F0
700070
F00078
E00038
E00038
E00038
E00038
E00038
E00038
E00038
E00038
E00038
F00078
700070
3800E0
3E03E0
1FFFC0
0FFF80
03FE00
ENDCHAR
STARTCHAR $080
ENCODING 80
SWIDTH 1728 0
DWIDTH 24 0
BBX 17 23 3 -1
BITMAP
FFFC00
FFFE00
FFFF00
E00F00
E00780
E00380
E00380
E00380
E00380
E00780
E00F00
FFFF00
FFFE00
FFFC00
E00000
E00000
E00000
E00000
E00000
E00000
E00000
E00000
E00000
ENDCHAR
STARTCHAR $081
ENCODING 81
SWIDTH 1728 0
DWIDTH 24 0
BBX 21 23 2 -1
BITMAP
03FE00
0FFF80
1FFFC0
3E03E0
7800F0
700070
F00078
E00038
E00038
E00038
E00038
E00038
E00038
E00038
E00038
E00E38
F00778
7003F0
3801E0
3E03E0
1FFFE0
0FFFF0
03FE38
ENDCHAR
STARTCHAR $082
ENCODING 82
SWIDTH 1728 0
DWIDTH 24 0
BBX 17 23 3 -1
BITMAP
FFFC00
FFFE00
FFFF00
E00F00
E00780
E00380
E00380
E00380
E00380
E00780
E00F00
FFFF00
FFFE00
FFFC00
E07800
E03C00
E01C00
E00E00
E00F00
E00700
E00780
E00380
E00380
ENDCHAR
STARTCHAR $083
ENCODING 83
SWIDTH 1728 0
DWIDTH 24 0
BBX 18 23 3 -1
BITMAP
0FFC00
3FFE00
7FFF00
700780
E00380
E00180
E00000
E00000
F00000
7FF800
3FFE00
1FFF00
000F80
000780
0003C0
C001C0
E001C0
E001C0
F003C0
780780
3FFF00
1FFF00
0FFE00
ENDCHAR
STARTCHAR $084
ENCODING 84
SWIDTH 1728 0
DWIDTH 24 0
BBX 18 23 3 -1
BITMAP
FFFFC0
FFFFC0
FFFFC0
00E000
00E000
00E000
00E000
00E000
00E000
00E000
00E000
00E000
00E000
00E000
00E000
00E000
00E000
00E000
00E000
00E000
00E000
00E000
00E000
ENDCHAR
STARTCHAR $085
ENCODING 85
SWIDTH 1728 0
DWIDTH 24 0
BBX 18 23 3 -1
BITMAP
E001C0
E001C0
E001C0
E001C0
E001C0
E001C0
E001C0
E001C0
E001C0
E001C0
E001C0
E001C0
E001C0
E001C0
E001C0
E001C0
E001C0
F003C0
700380
7C0F80
3FFF00
1FFE00
07F800
ENDCHAR
STARTCHAR $086
ENCODING 86
SWIDTH 1728 0
DWIDTH 24 0
BBX 19 23 2 -1
BITMAP
E000E0
E000E0
F001E0
7001C0
7001C0
380380
380380
380380
1C0700
1C0700
1C0700
0E0E00
0E0E00
0E0E00
071C00
071C00
071C00
03B800
03B800
03F800
01F000
01F000
01F000
ENDCHAR
STARTCHAR $087
ENCODING 87
SWIDTH 1728 0
DWIDTH 24 0
BBX 21 23 2 -1
BITMAP
E02038
E07038
E07038
E0F838
E0F838
E1FC38
E1FC38
E1DC38
E38E38
E38E38
E38E38
E70738
E70738
E70738
EE03B8
EE03B8
EE03B8
FC01F8
FC01F8
FC01F8
7800F0
7800F0
300060
ENDCHAR
STARTCHAR $088
ENCODING 88
SWIDTH 1728 0
DWIDTH 24 0
BBX 21 23 2 -1
BITMAP
700070
7800F0
7C01F0
3C01E0
1E03C0
0F0780
078F00
07DF00
03FE00
01FC00
00F800
007000
00F800
01FC00
03FE00
07DF00
0F8F80
1F07C0
3E03E0
7C01F0
F800F8
F00078
F00078
ENDCHAR
STARTCHAR $089
ENCODING 89
SWIDTH 1728 0
DWIDTH 24 0
BBX 21 23 2 -1
BITMAP
E00038
F00078
7800F0
3C01E0
1E03C0
0F0780
078F00
03DE00
01FC00
00F800
007000
007000
007000
007000
007000
007000
007000
007000
007000
007000
007000
007000
007000
ENDCHAR
STARTCHAR $090
ENCODING 90
SWIDTH 1728 0
DWIDTH 24 0
BBX 18 23 3 -1
BITMAP
FFFFC0
FFFFC0
FFFFC0
0001C0
0003C0
000780
000F00
001E00
003C00
007800
00F000
01E000
03C000
078000
0F0000
1E0000
3C0000
780000
F00000
E00000
FFFFC0
FFFFC0
FFFFC0
ENDCHAR
STARTCHAR $091
ENCODING 91
SWIDTH 1728 0
DWIDTH 24 0
BBX 9 27 8 -5
BITMAP
FF80
FF80
FF80
E000
E000
E000
E000
E000
E000
E000
E000
E000
E000
E000
E000
E000
E000
E000
E000
E000
E000
E000
E000
E000
FF80
FF80
FF80
ENDCHAR
STARTCHAR $092
ENCODING 92
SWIDTH 1728 0
DWIDTH 24 0
BBX 13 24 5 -1
BITMAP
E000
E000
E000
7000
7000
7000
1C00
1C00
1C00
0E00
0E00
0E00
0380
0380
0380
01C0
01C0
01C0
0070
0070
0070
0038
0038
0038
ENDCHAR
STARTCHAR $093
ENCODING 93
SWIDTH 1728 0
DWIDTH 24 0
BBX 9 27 8 -5
BITMAP
FF80
FF80
FF80
0380
0380
0380
0380
0380
0380
0380
0380
0380
0380
0380
0380
0380
0380
0380
0380
0380
0380
0380
0380
0380
FF80
FF80
FF80
ENDCHAR
STARTCHAR $094
ENCODING 94
SWIDTH 1728 0
DWIDTH 24 0
BBX 15 9 5 8
BITMAP
0100
0380
07C0
0EE0
1C70
3838
701C
E00E
C006
ENDCHAR
STARTCHAR $095
ENCODING 95
SWIDTH 1728 0
DWIDTH 24 0
BBX 24 3 0 -7
BITMAP
FFFFFF
FFFFFF
FFFFFF
ENDCHAR
STARTCHAR $096
ENCODING 96
SWIDTH 1728 0
DWIDTH 24 0
BBX 6 8 10 14
BITMAP
70
F8
F8
F8
F8
70
38
1C
ENDCHAR
STARTCHAR $097
ENCODING 97
SWIDTH 1728 0
DWIDTH 24 0
BBX 15 15 5 -1
BITMAP
3FC0
7FF0
FFF0
E078
0038
0078
1FF8
7FF8
7F38
F038
E078
F078
7FF8
7FDC
1F8E
ENDCHAR
STARTCHAR $098
ENCODING 98
SWIDTH 1728 0
DWIDTH 24 0
BBX 15 23 5 -1
BITMAP
E000
E000
E000
E000
E000
E000
E000
E000
EFE0
FFF8
FFFC
F83C
F01E
E00E
E00E
E00E
E00E
F00E
F01E
F83C
FFFC
EFF8
EFE0
ENDCHAR
STARTCHAR $099
ENCODING 99
SWIDTH 1728 0
DWIDTH 24 0
BBX 15 15 5 -1
BITMAP
1FF0
3FFC
7FFC
700E
E006
E000
E000
E000
E000
E000
E006
700E
7FFC
3FFC
1FF0
ENDCHAR
STARTCHAR $100
ENCODING 100
SWIDTH 1728 0
DWIDTH 24 0
BBX 15 23 5 -1
BITMAP
000E
000E
000E
000E
000E
000E
000E
000E
1FCE
3FEE
7FFE
703E
E01E
E00E
E00E
E00E
E00E
E00E
E01E
703E
7FFE
3FEE
1FCE
ENDCHAR
STARTCHAR $101
ENCODING 101
SWIDTH 1728 0
DWIDTH 24 0
BBX 15 15 5 -1
BITMAP
0FC0
3FF0
7FF8
783C
F01C
E00E
FFFE
FFFE
FFFE
E000
F000
780E
7FFC
3FFC
0FF0
ENDCHAR
STARTCHAR $102
ENCODING 102
SWIDTH 1728 0
DWIDTH 24 0
BBX 12 23 5 -1
BITMAP
07C0
0FE0
1FF0
1E30
1C00
1C00
1C00
1C00
1C00
FFC0
FFC0
FFC0
1C00
1C00
1C00
1C00
1C00
1C00
1C00
1C00
1C00
1C00
1C00
ENDCHAR
STARTCHAR $103
ENCODING 103
SWIDTH 1728 0
DWIDTH 24 0
BBX 15 21 5 -7
BITMAP
1FCE
3FEE
7FFE
703E
E01E
E01E
E00E
E00E
E00E
E01E
E01E
703E
7FFE
3FEE
1FCE
000E
C01E
E03E
FFFC
7FF8
3FF0
ENDCHAR
STARTCHAR $104
ENCODING 104
SWIDTH 1728 0
DWIDTH 24 0
BBX 15 23 5 -1
BITMAP
E000
E000
E000
E000
E000
E000
E000
E000
EFE0
FFF8
FFFC
F83C
F01E
E00E
E00E
E00E
E00E
E00E
E00E
E00E
E00E
E00E
E00E
ENDCHAR
STARTCHAR $105
ENCODING 105
SWIDTH 1728 0
DWIDTH 24 0
BBX 6 21 9 -1
BITMAP
38
38
38
00
00
00
F8
F8
F8
38
38
38
38
38
38
38
38
38
FC
FC
FC
ENDCHAR
STARTCHAR $106
ENCODING 106
SWIDTH 1728 0
DWIDTH 24 0
BBX 13 26 5 -4
BITMAP
0038
0038
0038
0000
0000
0000
0078
0078
0078
0038
0038
0038
0038
0038
0038
0038
0038
0038
0038
0038
C038
E038
F078
7FF0
7FF0
1FC0
ENDCHAR
STARTCHAR $107
ENCODING 107
SWIDTH 1728 0
DWIDTH 24 0
BBX 13 23 5 -1
BITMAP
E000
E000
E000
E000
E000
E000
E078
E0F0
E1E0
E3C0
E780
EF00
FE00
FC00
FC00
FE00
EF00
E780
E3C0
E1E0
E0F0
E078
E038
ENDCHAR
STARTCHAR $108
ENCODING 108
SWIDTH 1728 0
DWIDTH 24 0
BBX 6 23 9 -1
BITMAP
F8
F8
F8
38
38
38
38
38
38
38
38
38
38
38
38
38
38
38
38
38
FC
FC
FC
ENDCHAR
STARTCHAR $109
ENCODING 109
SWIDTH 1728 0
DWIDTH 24 0
BBX 17 15 3 -1
BITMAP
EF1E00
FFBF00
FFFF80
FBF780
F1E380
E1C380
E1C380
E1C380
E1C380
E1C380
E1C380
E1C380
E1C380
E1C380
E1C380
ENDCHAR
STARTCHAR $110
ENCODING 110
SWIDTH 1728 0
DWIDTH 24 0
BBX 15 15 5 -1
BITMAP
E7F0
EFF8
FFFC
FC3C
F81E
F00E
F00E
E00E
E00E
E00E
E00E
E00E
E00E
E00E
E00E
ENDCHAR
STARTCHAR $111
ENCODING 111
SWIDTH 1728 0
DWIDTH 24 0
BBX 15 15 5 -1
BITMAP
0FE0
3FF8
7FFC
783C
F01E
E00E
E00E
E00E
E00E
E00E
F01E
783C
7FFC
3FF8
0FE0
ENDCHAR
STARTCHAR $112
ENCODING 112
SWIDTH 1728 0
DWIDTH 24 0
BBX 15 21 5 -7
BITMAP
EFE0
FFF8
FFFC
F03C
E01E
E00E
E00E
E00E
E00E
E00E
E01E
F03C
FFFC
FFF8
EFE0
E000
E000
E000
E000
E000
E000
ENDCHAR
STARTCHAR $113
ENCODING 113
SWIDTH 1728 0
DWIDTH 24 0
BBX 15 21 4 -7
BITMAP
0FEE
3FFE
7FFE
781E
F00E
E00E
E00E
E00E
E00E
E00E
F00E
781E
7FFE
3FFE
0FEE
000E
000E
000E
000E
000E
000E
ENDCHAR
STARTCHAR $114
ENCODING 114
SWIDTH 1728 0
DWIDTH 24 0
BBX 15 15 5 -1
BITMAP
EFF8
FFFE
FFFE
F00E
E000
E000
E000
E000
E000
E000
E000
E000
E000
E000
E000
ENDCHAR
STARTCHAR $115
ENCODING 115
SWIDTH 1728 0
DWIDTH 24 0
BBX 15 15 5 -1
BITMAP
1FF0
7FFC
7FFC
E00E
E000
E000
7FF8
7FFC
1FFE
000E
E00E
F00E
7FFE
3FFC
1FF8
ENDCHAR
STARTCHAR $116
ENCODING 116
SWIDTH 1728 0
DWIDTH 24 0
BBX 11 23 6 -1
BITMAP
1C00
1C00
1C00
1C00
1C00
1C00
FFE0
FFE0
FFE0
1C00
1C00
1C00
1C00
1C00
1C00
1C00
1C00
1C00
1C00
1E60
1FE0
0FC0
0780
ENDCHAR
STARTCHAR $117
ENCODING 117
SWIDTH 1728 0
DWIDTH 24 0
BBX 15 15 5 -1
BITMAP
E00E
E00E
E00E
E00E
E00E
E00E
E00E
E00E
E00E
E01E
F01E
783E
7FFE
3FEE
0FCE
ENDCHAR
STARTCHAR $118
ENCODING 118
SWIDTH 1728 0
DWIDTH 24 0
BBX 18 15 3 -1
BITMAP
E001C0
E001C0
F003C0
700380
380700
3C0F00
1C0E00
1E1E00
0F3C00
07F800
07F800
03F000
01E000
01E000
00C000
ENDCHAR
STARTCHAR $119
ENCODING 119
SWIDTH 1728 0
DWIDTH 24 0
BBX 17 15 4 -1
BITMAP
E1C380
E1C380
E1C380
E1C380
E1C380
E1C380
E1C380
E1C380
E1C380
E1C380
E3C780
F7E780
FFFF80
7EFF80
3C7B80
ENDCHAR
STARTCHAR $120
ENCODING 120
SWIDTH 1728 0
DWIDTH 24 0
BBX 15 15 5 -1
BITMAP
F01E
783C
3838
1C70
1EF0
0FE0
07C0
07C0
0FE0
1EF0
1C70
3878
783C
701C
F01E
ENDCHAR
STARTCHAR $121
ENCODING 121
SWIDTH 1728 0
DWIDTH 24 0
BBX 15 21 5 -7
BITMAP
E00E
E00E
E00E
E00E
E00E
E00E
E00E
E00E
E00E
E01E
F01E
783E
7FFE
3FEE
0FCE
000E
C01E
E03C
FFFC
7FF8
3FE0
ENDCHAR
STARTCHAR $122
ENCODING 122
SWIDTH 1728 0
DWIDTH 24 0
BBX 15 15 5 -1
BITMAP
FFFE
FFFE
FFFE
0078
00F0
01E0
03C0
0780
0F00
1E00
3C00
7800
FFFE
FFFE
FFFE
ENDCHAR
STARTCHAR $123
ENCODING 123
SWIDTH 1728 0
DWIDTH 24 0
BBX 11 28 6 -5
BITMAP
01E0
0380
0700
0700
0700
0700
0700
0700
0700
0700
0F00
0E00
1E00
FC00
F800
1C00
0E00
0E00
0700
0700
0700
0700
0700
0700
0700
0700
0380
01E0
ENDCHAR
STARTCHAR $124
ENCODING 124
SWIDTH 1728 0
DWIDTH 24 0
BBX 3 28 11 -5
BITMAP
E0
E0
E0
E0
E0
E0
E0
E0
E0
E0
E0
E0
E0
E0
E0
E0
E0
E0
E0
E0
E0
E0
E0
E0
E0
E0
E0
E0
ENDCHAR
STARTCHAR $125
ENCODING 125
SWIDTH 1728 0
DWIDTH 24 0
BBX 11 28 7 -5
BITMAP
F000
3800
1C00
1C00
1C00
1C00
1C00
1C00
1C00
1C00
1E00
0E00
0F00
07E0
03E0
0700
0E00
0E00
1C00
1C00
1C00
1C00
1C00
1C00
1C00
1C00
3800
F000
ENDCHAR
STARTCHAR $126
ENCODING 126
SWIDTH 1728 0
DWIDTH 24 0
BBX 18 6 3 8
BITMAP
1F80C0
3FE1C0
7FF3C0
F0FF80
E03F00
C01E00
ENDCHAR
STARTCHAR $127
ENCODING 127
SWIDTH 1728 0
DWIDTH 24 0
BBX 24 36 0 -8
BITMAP
249249
249249
DB6DB6
249249
249249
DB6DB6
249249
249249
DB6DB6
249249
249249
DB6DB6
249249
249249
DB6DB6
249249
249249
DB6DB6
249249
249249
DB6DB6
249249
249249
DB6DB6
249249
249249
DB6DB6
249249
249249
DB6DB6
249249
249249
DB6DB6
249249
249249
DB6DB6
ENDCHAR
STARTCHAR $128
ENCODING 128
SWIDTH 1728 0
DWIDTH 24 0
BBX 0 0 0 0
BITMAP
ENDCHAR
STARTCHAR $129
ENCODING 129
SWIDTH 1728 0
DWIDTH 24 0
BBX 0 0 0 0
BITMAP
ENDCHAR
STARTCHAR $130
ENCODING 130
SWIDTH 1728 0
DWIDTH 24 0
BBX 0 0 0 0
BITMAP
ENDCHAR
STARTCHAR $131
ENCODING 131
SWIDTH 1728 0
DWIDTH 24 0
BBX 0 0 0 0
BITMAP
ENDCHAR
STARTCHAR $132
ENCODING 132
SWIDTH 1728 0
DWIDTH 24 0
BBX 0 0 0 0
BITMAP
ENDCHAR
STARTCHAR $133
ENCODING 133
SWIDTH 1728 0
DWIDTH 24 0
BBX 0 0 0 0
BITMAP
ENDCHAR
STARTCHAR $134
ENCODING 134
SWIDTH 1728 0
DWIDTH 24 0
BBX 0 0 0 0
BITMAP
ENDCHAR
STARTCHAR $135
ENCODING 135
SWIDTH 1728 0
DWIDTH 24 0
BBX 0 0 0 0
BITMAP
ENDCHAR
STARTCHAR $136
ENCODING 136
SWIDTH 1728 0
DWIDTH 24 0
BBX 0 0 0 0
BITMAP
ENDCHAR
STARTCHAR $137
ENCODING 137
SWIDTH 1728 0
DWIDTH 24 0
BBX 0 0 0 0
BITMAP
ENDCHAR
STARTCHAR $138
ENCODING 138
SWIDTH 1728 0
DWIDTH 24 0
BBX 0 0 0 0
BITMAP
ENDCHAR
STARTCHAR $139
ENCODING 139
SWIDTH 1728 0
DWIDTH 24 0
BBX 0 0 0 0
BITMAP
ENDCHAR
STARTCHAR $140
ENCODING 140
SWIDTH 1728 0
DWIDTH 24 0
BBX 0 0 0 0
BITMAP
ENDCHAR
STARTCHAR $141
ENCODING 141
SWIDTH 1728 0
DWIDTH 24 0
BBX 0 0 0 0
BITMAP
ENDCHAR
STARTCHAR $142
ENCODING 142
SWIDTH 1728 0
DWIDTH 24 0
BBX 0 0 0 0
BITMAP
ENDCHAR
STARTCHAR $143
ENCODING 143
SWIDTH 1728 0
DWIDTH 24 0
BBX 0 0 0 0
BITMAP
ENDCHAR
STARTCHAR $144
ENCODING 144
SWIDTH 1728 0
DWIDTH 24 0
BBX 0 0 0 0
BITMAP
ENDCHAR
STARTCHAR $145
ENCODING 145
SWIDTH 1728 0
DWIDTH 24 0
BBX 0 0 0 0
BITMAP
ENDCHAR
STARTCHAR $146
ENCODING 146
SWIDTH 1728 0
DWIDTH 24 0
BBX 0 0 0 0
BITMAP
ENDCHAR
STARTCHAR $147
ENCODING 147
SWIDTH 1728 0
DWIDTH 24 0
BBX 0 0 0 0
BITMAP
ENDCHAR
STARTCHAR $148
ENCODING 148
SWIDTH 1728 0
DWIDTH 24 0
BBX 0 0 0 0
BITMAP
ENDCHAR
STARTCHAR $149
ENCODING 149
SWIDTH 1728 0
DWIDTH 24 0
BBX 0 0 0 0
BITMAP
ENDCHAR
STARTCHAR $150
ENCODING 150
SWIDTH 1728 0
DWIDTH 24 0
BBX 0 0 0 0
BITMAP
ENDCHAR
STARTCHAR $151
ENCODING 151
SWIDTH 1728 0
DWIDTH 24 0
BBX 0 0 0 0
BITMAP
ENDCHAR
STARTCHAR $152
ENCODING 152
SWIDTH 1728 0
DWIDTH 24 0
BBX 0 0 0 0
BITMAP
ENDCHAR
STARTCHAR $153
ENCODING 153
SWIDTH 1728 0
DWIDTH 24 0
BBX 0 0 0 0
BITMAP
ENDCHAR
STARTCHAR $154
ENCODING 154
SWIDTH 1728 0
DWIDTH 24 0
BBX 0 0 0 0
BITMAP
ENDCHAR
STARTCHAR $155
ENCODING 155
SWIDTH 1728 0
DWIDTH 24 0
BBX 0 0 0 0
BITMAP
ENDCHAR
STARTCHAR $156
ENCODING 156
SWIDTH 1728 0
DWIDTH 24 0
BBX 0 0 0 0
BITMAP
ENDCHAR
STARTCHAR $157
ENCODING 157
SWIDTH 1728 0
DWIDTH 24 0
BBX 0 0 0 0
BITMAP
ENDCHAR
STARTCHAR $158
ENCODING 158
SWIDTH 1728 0
DWIDTH 24 0
BBX 0 0 0 0
BITMAP
ENDCHAR
STARTCHAR $159
ENCODING 159
SWIDTH 1728 0
DWIDTH 24 0
BBX 0 0 0 0
BITMAP
ENDCHAR
STARTCHAR $160
ENCODING 160
SWIDTH 1728 0
DWIDTH 24 0
BBX 0 0 0 0
BITMAP
ENDCHAR
STARTCHAR $161
ENCODING 161
SWIDTH 1728 0
DWIDTH 24 0
BBX 5 24 10 -2
BITMAP
70
F8
F8
F8
F8
70
00
00
20
70
70
70
70
70
70
F8
F8
F8
F8
F8
F8
F8
F8
70
ENDCHAR
STARTCHAR $162
ENCODING 162
SWIDTH 1728 0
DWIDTH 24 0
BBX 17 23 3 -1
BITMAP
00FE00
03FF00
07FF80
0F0180
0E0080
1C0000
1C0000
180000
380000
FFFE00
FFFE00
380000
FFFC00
FFFC00
380000
180000
1C0000
1C0000
0E0080
0F0180
07FF80
03FF00
00FE00
ENDCHAR
STARTCHAR $163
ENCODING 163
SWIDTH 1728 0
DWIDTH 24 0
BBX 17 23 3 -1
BITMAP
03FC00
07FE00
0FFF00
0F0780
1E0380
1C0180
1C0000
1C0000
1C0000
1C0000
1C0000
FFF000
FFF000
FFF000
070000
070000
0E0000
1C0000
3FC100
7FE380
FFFF80
E0FF00
C07E00
ENDCHAR
STARTCHAR $164
ENCODING 164
SWIDTH 1728 0
DWIDTH 24 0
BBX 15 15 5 1
BITMAP
0380
0380
13B0
6C48
6C48
13B0
EFCE
EFCE
EFCE
13B0
13B0
6C48
13B0
13B0
0380
ENDCHAR
STARTCHAR $165
ENCODING 165
SWIDTH 1728 0
DWIDTH 24 0
BBX 18 21 3 -1
BITMAP
F001C0
7803C0
3C0780
1E0F00
0F1E00
07BC00
03F800
01F000
01F000
3FFF80
3FFF80
3FFF80
00E000
00E000
00E000
3FFF80
3FFF80
3FFF80
00E000
00E000
00E000
ENDCHAR
STARTCHAR $166
ENCODING 166
SWIDTH 1728 0
DWIDTH 24 0
BBX 3 26 11 -4
BITMAP
E0
E0
E0
E0
E0
E0
E0
E0
E0
E0
E0
00
00
00
00
E0
E0
E0
E0
E0
E0
E0
E0
E0
E0
E0
ENDCHAR
STARTCHAR $167
ENCODING 167
SWIDTH 1728 0
DWIDTH 24 0
BBX 15 21 5 -1
BITMAP
3FF8
7FFC
7FFE
E006
C000
C000
FFF0
9FF8
8FFC
C00E
C006
E006
7FE6
3FF6
1FFE
0006
0006
C00E
FFFC
7FFC
3FF8
ENDCHAR
STARTCHAR $168
ENCODING 168
SWIDTH 1728 0
DWIDTH 24 0
BBX 7 27 8 -4
BITMAP
10
10
10
10
10
10
1C
1C
1C
1C
1E
1E
9E
F2
F2
F0
70
70
70
70
70
10
10
10
10
10
10
ENDCHAR
STARTCHAR $169
ENCODING 169
SWIDTH 1728 0
DWIDTH 24 0
BBX 21 7 2 4
BITMAP
007000
0FC000
0FC000
FFFFF8
003F00
003F00
007000
ENDCHAR
STARTCHAR $170
ENCODING 170
SWIDTH 1728 0
DWIDTH 24 0
BBX 18 24 3 -4
BITMAP
000040
000180
000180
000200
000E00
000E00
001C00
007000
007000
00F000
07E000
07E000
00FC00
03E000
03E000
038000
070000
070000
1C0000
180000
180000
200000
C00000
C00000
ENDCHAR
STARTCHAR $171
ENCODING 171
SWIDTH 1728 0
DWIDTH 24 0
BBX 18 24 3 -4
BITMAP
C00000
200000
200000
180000
1C0000
1C0000
070000
038000
038000
03E000
00FC00
00FC00
07E000
00F000
00F000
007000
001C00
001C00
000E00
000200
000200
000180
000040
000040
ENDCHAR
STARTCHAR $172
ENCODING 172
SWIDTH 1728 0
DWIDTH 24 0
BBX 19 24 2 -4
BITMAP
01B000
124900
124900
6DF6C0
1E4F00
1E4F00
6DB6C0
93F920
93F920
7DF7C0
93F920
93F920
93F920
7DF7C0
7DF7C0
93F920
6DB6C0
6DB6C0
1E4F00
6DF6C0
6DF6C0
124900
01B000
01B000
ENDCHAR
STARTCHAR $173
ENCODING 173
SWIDTH 1728 0
DWIDTH 24 0
BBX 23 26 0 -4
BITMAP
030200
030200
008C0E
388C30
388C30
048230
046240
046240
03E240
E06D80
E06D80
1FFE00
007F8E
007F8E
1FFE70
E0FD80
E0FD80
078FF0
189D88
189D88
E31188
046D86
046D86
046040
008030
008030
ENDCHAR
STARTCHAR $174
ENCODING 174
SWIDTH 1728 0
DWIDTH 24 0
BBX 19 24 2 -2
BITMAP
800020
800020
61B0C0
7249C0
7249C0
1DB700
1E4F00
1E4F00
6FFEC0
93F920
93F920
6FFEC0
6FFEC0
6FFEC0
93F920
6FFEC0
6FFEC0
1E4F00
1DB700
1DB700
7249C0
61B0C0
61B0C0
800020
ENDCHAR
STARTCHAR $175
ENCODING 175
SWIDTH 1728 0
DWIDTH 24 0
BBX 21 26 2 -1
BITMAP
060300
0F0780
060300
E02038
E07038
E07038
E0F838
E0F838
E1FC38
E1FC38
E1DC38
E38E38
E38E38
E38E38
E70738
E70738
E70738
EE03B8
EE03B8
EE03B8
FC01F8
FC01F8
FC01F8
7800F0
7800F0
300060
ENDCHAR
STARTCHAR $176
ENCODING 176
SWIDTH 1728 0
DWIDTH 24 0
BBX 0 0 0 0
BITMAP
ENDCHAR
STARTCHAR $177
ENCODING 177
SWIDTH 1728 0
DWIDTH 24 0
BBX 0 0 0 0
BITMAP
ENDCHAR
STARTCHAR $178
ENCODING 178
SWIDTH 1728 0
DWIDTH 24 0
BBX 0 0 0 0
BITMAP
ENDCHAR
STARTCHAR $179
ENCODING 179
SWIDTH 1728 0
DWIDTH 24 0
BBX 0 0 0 0
BITMAP
ENDCHAR
STARTCHAR $180
ENCODING 180
SWIDTH 1728 0
DWIDTH 24 0
BBX 0 0 0 0
BITMAP
ENDCHAR
STARTCHAR $181
ENCODING 181
SWIDTH 1728 0
DWIDTH 24 0
BBX 0 0 0 0
BITMAP
ENDCHAR
STARTCHAR $182
ENCODING 182
SWIDTH 1728 0
DWIDTH 24 0
BBX 0 0 0 0
BITMAP
ENDCHAR
STARTCHAR $183
ENCODING 183
SWIDTH 1728 0
DWIDTH 24 0
BBX 0 0 0 0
BITMAP
ENDCHAR
STARTCHAR $184
ENCODING 184
SWIDTH 1728 0
DWIDTH 24 0
BBX 0 0 0 0
BITMAP
ENDCHAR
STARTCHAR $185
ENCODING 185
SWIDTH 1728 0
DWIDTH 24 0
BBX 0 0 0 0
BITMAP
ENDCHAR
STARTCHAR $186
ENCODING 186
SWIDTH 1728 0
DWIDTH 24 0
BBX 0 0 0 0
BITMAP
ENDCHAR
STARTCHAR $187
ENCODING 187
SWIDTH 1728 0
DWIDTH 24 0
BBX 0 0 0 0
BITMAP
ENDCHAR
STARTCHAR $188
ENCODING 188
SWIDTH 1728 0
DWIDTH 24 0
BBX 0 0 0 0
BITMAP
ENDCHAR
STARTCHAR $189
ENCODING 189
SWIDTH 1728 0
DWIDTH 24 0
BBX 0 0 0 0
BITMAP
ENDCHAR
STARTCHAR $190
ENCODING 190
SWIDTH 1728 0
DWIDTH 24 0
BBX 0 0 0 0
BITMAP
ENDCHAR
STARTCHAR $191
ENCODING 191
SWIDTH 1728 0
DWIDTH 24 0
BBX 15 25 5 -3
BITMAP
0380
07C0
07C0
07C0
07C0
0380
0000
0100
0380
0380
03C0
01E0
01F0
00F8
0078
003C
001E
000E
E00E
F01E
F83C
7C7C
3FF8
1FF0
07C0
ENDCHAR
STARTCHAR $192
ENCODING 192
SWIDTH 1728 0
DWIDTH 24 0
BBX 19 29 2 -1
BITMAP
030000
018000
00C000
006000
000000
000000
00E000
00E000
01F000
01F000
03B800
03B800
031C00
071C00
071C00
0E0E00
0E0E00
0E0E00
1FFF00
1FFF00
3FFF80
380380
380380
7001C0
7001C0
7001C0
E000E0
E000E0
C00060
ENDCHAR
STARTCHAR $193
ENCODING 193
SWIDTH 1728 0
DWIDTH 24 0
BBX 19 29 3 -1
BITMAP
001800
003000
006000
00C000
000000
000000
00E000
00E000
01F000
01F000
03B800
03B800
071800
071C00
071C00
0E0E00
0E0E00
0E0E00
1FFF00
1FFF00
3FFF80
380380
380380
7001C0
7001C0
7001C0
E000E0
E000E0
C00060
ENDCHAR
STARTCHAR $194
ENCODING 194
SWIDTH 1728 0
DWIDTH 24 0
BBX 19 29 2 -1
BITMAP
004000
00E000
01B000
031800
000000
000000
00E000
00E000
01F000
01F000
03B800
03B800
031C00
071C00
071C00
0E0E00
0E0E00
0E0E00
1FFF00
1FFF00
3FFF80
380380
380380
7001C0
7001C0
7001C0
E000E0
E000E0
C00060
ENDCHAR
STARTCHAR $195
ENCODING 195
SWIDTH 1728 0
DWIDTH 24 0
BBX 19 29 2 -1
BITMAP
030C00
079800
0CF000
086000
000000
000000
00E000
00E000
01F000
01F000
03B800
03B800
031C00
071C00
071C00
0E0E00
0E0E00
0E0E00
1FFF00
1FFF00
3FFF80
380380
380380
7001C0
7001C0
7001C0
E000E0
E000E0
C00060
ENDCHAR
STARTCHAR $196
ENCODING 196
SWIDTH 1728 0
DWIDTH 24 0
BBX 19 28 2 -1
BITMAP
060C00
0F1E00
0F1E00
060C00
000000
00E000
00E000
01F000
01F000
03B800
03B800
031C00
071C00
071C00
0E0E00
0E0E00
0E0E00
1FFF00
1FFF00
3FFF80
380380
380380
7001C0
7001C0
7001C0
E000E0
E000E0
C00060
ENDCHAR
STARTCHAR $197
ENCODING 197
SWIDTH 1728 0
DWIDTH 24 0
BBX 19 29 2 -1
BITMAP
00E000
01B000
031800
020800
031800
01B000
00E000
00E000
01F000
01F000
03B800
03B800
031C00
071C00
071C00
0E0E00
0E0E00
0E0E00
1FFF00
1FFF00
3FFF80
380380
380380
7001C0
7001C0
7001C0
E000E0
E000E0
C00060
ENDCHAR
STARTCHAR $198
ENCODING 198
SWIDTH 1728 0
DWIDTH 24 0
BBX 23 23 0 -1
BITMAP
00FFFE
00FFFE
01FFFE
01DC00
01DC00
039C00
039C00
071C00
071C00
071FF8
0E1FF8
0E1FF8
0E1C00
1C1C00
1FFC00
1FFC00
3FFC00
381C00
701C00
701C00
701FFE
E01FFE
E01FFE
ENDCHAR
STARTCHAR $199
ENCODING 199
SWIDTH 1728 0
DWIDTH 24 0
BBX 19 29 2 -7
BITMAP
03FC00
0FFF00
1FFF80
3E0780
7C03C0
7801E0
F001E0
F000E0
E00000
E00000
E00000
E00000
E00000
E00000
E00000
F000E0
F001E0
7801E0
7C03C0
3E07C0
1FFF80
0FFF00
03FE00
006000
003000
001800
063800
03F000
01E000
ENDCHAR
STARTCHAR $200
ENCODING 200
SWIDTH 1728 0
DWIDTH 24 0
BBX 16 29 5 -1
BITMAP
0380
0380
01C0
00C0
0040
0000
FFFF
FFFF
FFFF
E000
E000
E000
E000
E000
E000
FFFE
FFFE
FFFE
E000
E000
E000
E000
E000
E000
E000
E000
FFFF
FFFF
FFFF
ENDCHAR
STARTCHAR $201
ENCODING 201
SWIDTH 1728 0
DWIDTH 24 0
BBX 16 29 5 -1
BITMAP
01C0
01C0
0380
0300
0200
0000
FFFF
FFFF
FFFF
E000
E000
E000
E000
E000
E000
FFFE
FFFE
FFFE
E000
E000
E000
E000
E000
E000
E000
E000
FFFF
FFFF
FFFF
ENDCHAR
STARTCHAR $202
ENCODING 202
SWIDTH 1728 0
DWIDTH 24 0
BBX 16 29 5 -1
BITMAP
01C0
03E0
07F0
0E38
0C18
0000
FFFF
FFFF
FFFF
E000
E000
E000
E000
E000
E000
FFFE
FFFE
FFFE
E000
E000
E000
E000
E000
E000
E000
E000
FFFF
FFFF
FFFF
ENDCHAR
STARTCHAR $203
ENCODING 203
SWIDTH 1728 0
DWIDTH 24 0
BBX 16 28 5 -1
BITMAP
0C30
1E78
1E78
0C30
0000
FFFF
FFFF
FFFF
E000
E000
E000
E000
E000
E000
FFFE
FFFE
FFFE
E000
E000
E000
E000
E000
E000
E000
E000
FFFF
FFFF
FFFF
ENDCHAR
STARTCHAR $204
ENCODING 204
SWIDTH 1728 0
DWIDTH 24 0
BBX 9 29 8 -1
BITMAP
7000
7800
1800
0C00
0400
0000
FF80
FF80
FF80
1C00
1C00
1C00
1C00
1C00
1C00
1C00
1C00
1C00
1C00
1C00
1C00
1C00
1C00
1C00
1C00
1C00
FF80
FF80
FF80
ENDCHAR
STARTCHAR $205
ENCODING 205
SWIDTH 1728 0
DWIDTH 24 0
BBX 9 29 8 -1
BITMAP
0700
0F00
0C00
1800
1000
0000
FF80
FF80
FF80
1C00
1C00
1C00
1C00
1C00
1C00
1C00
1C00
1C00
1C00
1C00
1C00
1C00
1C00
1C00
1C00
1C00
FF80
FF80
FF80
ENDCHAR
STARTCHAR $206
ENCODING 206
SWIDTH 1728 0
DWIDTH 24 0
BBX 9 29 8 -1
BITMAP
1C00
3E00
7F00
E380
C180
0000
FF80
FF80
FF80
1C00
1C00
1C00
1C00
1C00
1C00
1C00
1C00
1C00
1C00
1C00
1C00
1C00
1C00
1C00
1C00
1C00
FF80
FF80
FF80
ENDCHAR
STARTCHAR $207
ENCODING 207
SWIDTH 1728 0
DWIDTH 24 0
BBX 9 28 8 -1
BITMAP
6300
F780
F780
6300
0000
FF80
FF80
FF80
1C00
1C00
1C00
1C00
1C00
1C00
1C00
1C00
1C00
1C00
1C00
1C00
1C00
1C00
1C00
1C00
1C00
FF80
FF80
FF80
ENDCHAR
STARTCHAR $208
ENCODING 208
SWIDTH 1728 0
DWIDTH 24 0
BBX 21 23 0 -1
BITMAP
1FFE00
1FFF80
1FFFC0
1C03E0
1C00F0
1C0070
1C0038
1C0038
1C0038
FFE038
FFE038
FFE038
FFE038
1C0038
1C0038
1C0038
1C0038
1C0070
1C00F0
1C01E0
1FFFC0
1FFF80
1FFE00
ENDCHAR
STARTCHAR $209
ENCODING 209
SWIDTH 1728 0
DWIDTH 24 0
BBX 18 29 3 -1
BITMAP
01C600
03EE00
07FE00
077C00
063800
000000
E001C0
F001C0
F001C0
F801C0
FC01C0
FC01C0
EE01C0
E701C0
E701C0
E381C0
E1C1C0
E0E1C0
E0E1C0
E071C0
E039C0
E039C0
E01DC0
E00FC0
E00FC0
E007C0
E003C0
E003C0
E001C0
ENDCHAR
STARTCHAR $210
ENCODING 210
SWIDTH 1728 0
DWIDTH 24 0
BBX 21 29 2 -1
BITMAP
01C000
01E000
00F000
003800
000000
000000
03FE00
0FFF80
1FFFC0
3E03E0
7800F0
700070
F00078
E00038
E00038
E00038
E00038
E00038
E00038
E00038
E00038
E00038
F00078
700070
3800E0
3E03E0
1FFFC0
0FFF80
03FE00
ENDCHAR
STARTCHAR $211
ENCODING 211
SWIDTH 1728 0
DWIDTH 24 0
BBX 21 29 1 -1
BITMAP
001C00
003C00
007800
00E000
000000
000000
03FE00
0FFF80
1FFFC0
3E03E0
7800F0
700070
F00078
E00038
E00038
E00038
E00038
E00038
E00038
E00038
E00038
E00038
F00078
700070
3800E0
3E03E0
1FFFC0
0FFF80
03FE00
ENDCHAR
STARTCHAR $212
ENCODING 212
SWIDTH 1728 0
DWIDTH 24 0
BBX 21 29 2 -1
BITMAP
006000
00F000
019800
030C00
000000
000000
03FE00
0FFF80
1FFFC0
3E03E0
7800F0
700070
F00078
E00038
E00038
E00038
E00038
E00038
E00038
E00038
E00038
E00038
F00078
700070
3800E0
3E03E0
1FFFC0
0FFF80
03FE00
ENDCHAR
STARTCHAR $213
ENCODING 213
SWIDTH 1728 0
DWIDTH 24 0
BBX 21 29 2 -1
BITMAP
00C200
01E600
033C00
061800
000000
000000
03FE00
0FFF80
1FFFC0
3E03E0
7800F0
700070
F00078
E00038
E00038
E00038
E00038
E00038
E00038
E00038
E00038
E00038
F00078
700070
3800E0
3E03E0
1FFFC0
0FFF80
03FE00
ENDCHAR
STARTCHAR $214
ENCODING 214
SWIDTH 1728 0
DWIDTH 24 0
BBX 21 28 2 -1
BITMAP
018C00
03DE00
03DE00
018C00
000000
03FE00
0FFF80
1FFFC0
3E03E0
7800F0
700070
F00078
E00038
E00038
E00038
E00038
E00038
E00038
E00038
E00038
E00038
F00078
700070
3800E0
3E03E0
1FFFC0
0FFF80
03FE00
ENDCHAR
STARTCHAR $215
ENCODING 215
SWIDTH 1728 0
DWIDTH 24 0
BBX 0 0 0 0
BITMAP
ENDCHAR
STARTCHAR $216
ENCODING 216
SWIDTH 1728 0
DWIDTH 24 0
BBX 21 23 2 -1
BITMAP
03FE18
0FFFB8
1FFFF0
3E03E0
7801F0
7003F0
F00378
E00738
E00E38
E01C38
E03838
E07038
E0E038
E1C038
E38038
E70038
F60078
7E0070
3C00E0
3E03E0
7FFFC0
EFFF80
C3FE00
ENDCHAR
STARTCHAR $217
ENCODING 217
SWIDTH 1728 0
DWIDTH 24 0
BBX 18 29 3 -1
BITMAP
070000
038000
00C000
006000
000000
000000
E001C0
E001C0
E001C0
E001C0
E001C0
E001C0
E001C0
E001C0
E001C0
E001C0
E001C0
E001C0
E001C0
E001C0
E001C0
E001C0
E001C0
F003C0
700380
7C0F80
3FFF00
1FFE00
07F800
ENDCHAR
STARTCHAR $218
ENCODING 218
SWIDTH 1728 0
DWIDTH 24 0
BBX 18 29 3 -1
BITMAP
003800
007000
00C000
018000
000000
000000
E001C0
E001C0
E001C0
E001C0
E001C0
E001C0
E001C0
E001C0
E001C0
E001C0
E001C0
E001C0
E001C0
E001C0
E001C0
E001C0
E001C0
F003C0
700380
7C0F80
3FFF00
1FFE00
07F800
ENDCHAR
STARTCHAR $219
ENCODING 219
SWIDTH 1728 0
DWIDTH 24 0
BBX 18 29 3 -1
BITMAP
00C000
01E000
033000
061800
000000
000000
E001C0
E001C0
E001C0
E001C0
E001C0
E001C0
E001C0
E001C0
E001C0
E001C0
E001C0
E001C0
E001C0
E001C0
E001C0
E001C0
E001C0
F003C0
700380
7C0F80
3FFF00
1FFE00
07F800
ENDCHAR
STARTCHAR $220
ENCODING 220
SWIDTH 1728 0
DWIDTH 24 0
BBX 18 28 3 -1
BITMAP
061800
0F3C00
0F3C00
061800
000000
E001C0
E001C0
E001C0
E001C0
E001C0
E001C0
E001C0
E001C0
E001C0
E001C0
E001C0
E001C0
E001C0
E001C0
E001C0
E001C0
E001C0
F003C0
700380
7C0F80
3FFF00
1FFE00
07F800
ENDCHAR
STARTCHAR $221
ENCODING 221
SWIDTH 1728 0
DWIDTH 24 0
BBX 21 29 2 -1
BITMAP
003800
007000
006000
00C000
000000
000000
E00038
F00078
7800F0
3C01E0
1E03C0
0F0780
078F00
03DE00
01FC00
00F800
007000
007000
007000
007000
007000
007000
007000
007000
007000
007000
007000
007000
007000
ENDCHAR
STARTCHAR $222
ENCODING 222
SWIDTH 1728 0
DWIDTH 24 0
BBX 17 23 3 -1
BITMAP
E00000
E00000
E00000
E00000
E00000
FFFC00
FFFE00
FFFF00
E00F00
E00380
E00380
E00380
E00380
E00380
E00F00
FFFF00
FFFE00
FFFC00
E00000
E00000
E00000
E00000
E00000
ENDCHAR
STARTCHAR $223
ENCODING 223
SWIDTH 1728 0
DWIDTH 24 0
BBX 17 23 3 -1
BITMAP
1FE000
3FF000
7FF800
787C00
F03C00
E01C00
E01C00
E03C00
E07800
E0E000
E1C000
E0F000
E07C00
E03E00
E00F00
E00700
E00380
E00380
E60380
E78700
E3FF00
E1FE00
E0F800
ENDCHAR
STARTCHAR $224
ENCODING 224
SWIDTH 1728 0
DWIDTH 24 0
BBX 15 21 5 -1
BITMAP
0C00
0700
0380
0180
0000
0000
3FC0
7FF0
FFF0
E078
0038
0078
1FF8
7FF8
7F38
F038
E078
F078
7FF8
7FDC
1F8E
ENDCHAR
STARTCHAR $225
ENCODING 225
SWIDTH 1728 0
DWIDTH 24 0
BBX 15 21 5 -1
BITMAP
0180
0700
0E00
0C00
0000
0000
3FC0
7FF0
FFF0
E078
0038
0078
1FF8
7FF8
7F38
F038
E078
F078
7FF8
7FDC
1F8E
ENDCHAR
STARTCHAR $226
ENCODING 226
SWIDTH 1728 0
DWIDTH 24 0
BBX 15 21 5 -1
BITMAP
0600
0F00
1980
30C0
0000
0000
3FC0
7FF0
FFF0
E078
0038
0078
1FF8
7FF8
7F38
F038
E078
F078
7FF8
7FDC
1F8E
ENDCHAR
STARTCHAR $227
ENCODING 227
SWIDTH 1728 0
DWIDTH 24 0
BBX 15 21 5 -1
BITMAP
1840
3CC0
6780
4300
0000
0000
3FC0
7FF0
FFF0
E078
0038
0078
1FF8
7FF8
7F38
F038
E078
F078
7FF8
7FDC
1F8E
ENDCHAR
STARTCHAR $228
ENCODING 228
SWIDTH 1728 0
DWIDTH 24 0
BBX 15 21 5 -1
BITMAP
18C0
3DE0
3DE0
18C0
0000
0000
3FC0
7FF0
FFF0
E078
0038
0078
1FF8
7FF8
7F38
F038
E078
F078
7FF8
7FDC
1F8E
ENDCHAR
STARTCHAR $229
ENCODING 229
SWIDTH 1728 0
DWIDTH 24 0
BBX 15 25 5 -1
BITMAP
0F00
1F80
39C0
30C0
30C0
39C0
1F80
0F00
0000
0000
3FC0
7FF0
FFF0
E078
0038
0078
1FF8
7FF8
7F38
F038
E078
F078
7FF8
7FDC
1F8E
ENDCHAR
STARTCHAR $230
ENCODING 230
SWIDTH 1728 0
DWIDTH 24 0
BBX 23 15 0 -1
BITMAP
1FE3E0
3FFFF8
7FFFF8
E07C1C
03F00E
1FF006
7FFFFE
F07FFE
E07FFE
C07000
C0F80C
E0FC1C
7FFFFC
7F0FF8
1F03E0
ENDCHAR
STARTCHAR $231
ENCODING 231
SWIDTH 1728 0
DWIDTH 24 0
BBX 15 22 5 -8
BITMAP
1FF0
3FFC
7FFC
700E
E006
E000
E000
E000
E000
E000
E006
700E
7FFC
3FFC
1FF0
0200
0100
0180
10C0
18C0
0FC0
0780
ENDCHAR
STARTCHAR $232
ENCODING 232
SWIDTH 1728 0
DWIDTH 24 0
BBX 15 22 5 -1
BITMAP
1C00
1C00
0E00
0600
0300
0000
0000
0FC0
3FF0
7FF8
783C
F01C
E00E
FFFE
FFFE
FFFE
E000
F000
780E
7FFC
3FFC
0FF0
ENDCHAR
STARTCHAR $233
ENCODING 233
SWIDTH 1728 0
DWIDTH 24 0
BBX 15 22 5 -1
BITMAP
00E0
00E0
01C0
0180
0300
0000
0000
0FC0
3FF0
7FF8
783C
F01C
E00E
FFFE
FFFE
FFFE
E000
F000
780E
7FFC
3FFC
0FF0
ENDCHAR
STARTCHAR $234
ENCODING 234
SWIDTH 1728 0
DWIDTH 24 0
BBX 15 21 5 -1
BITMAP
0300
0780
0CC0
1860
0000
0000
0FC0
3FF0
7FF8
783C
F01C
E00E
FFFE
FFFE
FFFE
E000
F000
780E
7FFC
3FFC
0FF0
ENDCHAR
STARTCHAR $235
ENCODING 235
SWIDTH 1728 0
DWIDTH 24 0
BBX 15 21 5 -1
BITMAP
0C60
1EF0
1EF0
0C60
0000
0000
0FC0
3FF0
7FF8
783C
F01C
E00E
FFFE
FFFE
FFFE
E000
F000
780E
7FFC
3FFC
0FF0
ENDCHAR
STARTCHAR $236
ENCODING 236
SWIDTH 1728 0
DWIDTH 24 0
BBX 6 22 9 -1
BITMAP
40
60
30
38
18
00
00
F8
F8
F8
38
38
38
38
38
38
38
38
38
FC
FC
FC
ENDCHAR
STARTCHAR $237
ENCODING 237
SWIDTH 1728 0
DWIDTH 24 0
BBX 6 21 9 -1
BITMAP
18
30
70
60
00
00
F8
F8
F8
38
38
38
38
38
38
38
38
38
FC
FC
FC
ENDCHAR
STARTCHAR $238
ENCODING 238
SWIDTH 1728 0
DWIDTH 24 0
BBX 8 21 8 -1
BITMAP
18
3C
66
C3
00
00
7C
7C
7C
1C
1C
1C
1C
1C
1C
1C
1C
1C
7E
7E
7E
ENDCHAR
STARTCHAR $239
ENCODING 239
SWIDTH 1728 0
DWIDTH 24 0
BBX 9 21 7 -1
BITMAP
6300
F780
F780
6300
0000
0000
3E00
3E00
3E00
0E00
0E00
0E00
0E00
0E00
0E00
0E00
0E00
0E00
3F00
3F00
3F00
ENDCHAR
STARTCHAR $240
ENCODING 240
SWIDTH 1728 0
DWIDTH 24 0
BBX 15 22 5 -1
BITMAP
0C00
0E00
0770
03C0
0F80
19C0
00E0
0FF0
3FF8
7FFC
783C
F01E
E00E
E00E
E00E
E00E
E00E
F01E
783C
7FFC
3FF8
0FE0
ENDCHAR
STARTCHAR $241
ENCODING 241
SWIDTH 1728 0
DWIDTH 24 0
BBX 15 22 5 -1
BITMAP
0C30
1E60
33C0
6180
0000
0000
0000
E7F0
EFF8
FFFC
FC3C
F81E
F00E
F00E
E00E
E00E
E00E
E00E
E00E
E00E
E00E
E00E
ENDCHAR
STARTCHAR $242
ENCODING 242
SWIDTH 1728 0
DWIDTH 24 0
BBX 15 21 5 -1
BITMAP
0600
0300
0380
0180
0000
0000
0FE0
3FF8
7FFC
783C
F01E
E00E
E00E
E00E
E00E
E00E
F01E
783C
7FFC
3FF8
0FE0
ENDCHAR
STARTCHAR $243
ENCODING 243
SWIDTH 1728 0
DWIDTH 24 0
BBX 15 21 5 -1
BITMAP
0060
01C0
0380
0300
0000
0000
0FE0
3FF8
7FFC
783C
F01E
E00E
E00E
E00E
E00E
E00E
F01E
783C
7FFC
3FF8
0FE0
ENDCHAR
STARTCHAR $244
ENCODING 244
SWIDTH 1728 0
DWIDTH 24 0
BBX 15 22 5 -1
BITMAP
0380
07C0
0C60
1830
0000
0000
0000
0FE0
3FF8
7FFC
783C
F01E
E00E
E00E
E00E
E00E
E00E
F01E
783C
7FFC
3FF8
0FE0
ENDCHAR
STARTCHAR $245
ENCODING 245
SWIDTH 1728 0
DWIDTH 24 0
BBX 15 22 5 -1
BITMAP
0C18
1E30
33E0
61C0
0000
0000
0000
0FE0
3FF8
7FFC
783C
F01E
E00E
E00E
E00E
E00E
E00E
F01E
783C
7FFC
3FF8
0FE0
ENDCHAR
STARTCHAR $246
ENCODING 246
SWIDTH 1728 0
DWIDTH 24 0
BBX 15 21 5 -1
BITMAP
0C60
1EF0
1EF0
0C60
0000
0000
0FE0
3FF8
7FFC
783C
F01E
E00E
E00E
E00E
E00E
E00E
F01E
783C
7FFC
3FF8
0FE0
ENDCHAR
STARTCHAR $247
ENCODING 247
SWIDTH 1728 0
DWIDTH 24 0
BBX 0 0 0 0
BITMAP
ENDCHAR
STARTCHAR $248
ENCODING 248
SWIDTH 1728 0
DWIDTH 24 0
BBX 15 15 5 -1
BITMAP
0FE2
3FFC
7FFC
783C
F03E
E04E
E08E
E10E
E20E
E40E
F81E
783C
7FFC
7FF8
8FE0
ENDCHAR
STARTCHAR $249
ENCODING 249
SWIDTH 1728 0
DWIDTH 24 0
BBX 15 22 5 -1
BITMAP
0C00
0700
0380
0180
0000
0000
0000
E00E
E00E
E00E
E00E
E00E
E00E
E00E
E00E
E00E
E01E
F01E
783E
7FFE
3FEE
0FCE
ENDCHAR
STARTCHAR $250
ENCODING 250
SWIDTH 1728 0
DWIDTH 24 0
BBX 15 22 5 -1
BITMAP
00C0
0380
0700
0600
0000
0000
0000
E00E
E00E
E00E
E00E
E00E
E00E
E00E
E00E
E00E
E01E
F01E
783E
7FFE
3FEE
0FCE
ENDCHAR
STARTCHAR $251
ENCODING 251
SWIDTH 1728 0
DWIDTH 24 0
BBX 15 22 5 -1
BITMAP
0300
0780
0CC0
1860
0000
0000
0000
E00E
E00E
E00E
E00E
E00E
E00E
E00E
E00E
E00E
E01E
F01E
783E
7FFE
3FEE
0FCE
ENDCHAR
STARTCHAR $252
ENCODING 252
SWIDTH 1728 0
DWIDTH 24 0
BBX 15 22 5 -1
BITMAP
0C60
1EF0
1EF0
0C60
0000
0000
0000
E00E
E00E
E00E
E00E
E00E
E00E
E00E
E00E
E00E
E01E
F01E
783E
7FFE
3FEE
0FCE
ENDCHAR
STARTCHAR $253
ENCODING 253
SWIDTH 1728 0
DWIDTH 24 0
BBX 15 28 5 -7
BITMAP
00C0
0180
0380
0700
0700
0000
0000
E00E
E00E
E00E
E00E
E00E
E00E
E00E
E00E
E00E
E01E
F01E
783E
7FFE
3FEE
0FCE
000E
C01E
E03C
FFFC
7FF8
3FE0
ENDCHAR
STARTCHAR $254
ENCODING 254
SWIDTH 1728 0
DWIDTH 24 0
BBX 15 24 5 -7
BITMAP
E000
E000
E000
E000
E000
E000
FFF0
FFF8
FFFC
E01C
E00E
E00E
E00E
E00E
E01C
FFFC
FFF8
FFF0
E000
E000
E000
E000
E000
E000
ENDCHAR
STARTCHAR $255
ENCODING 255
SWIDTH 1728 0
DWIDTH 24 0
BBX 15 28 5 -7
BITMAP
0C60
1EF0
1EF0
0C60
0000
0000
0000
E00E
E00E
E00E
E00E
E00E
E00E
E00E
E00E
E00E
E01E
F01E
783E
7FFE
3FEE
0FCE
000E
C01E
E03C
FFFC
7FF8
3FE0
ENDCHAR
ENDFONT
